<?xml version="1.0" encoding="UTF-8"?>
<svg xmlns="http://www.w3.org/2000/svg" width="3600" height="450" viewBox="0 0 3600 450" role="img" aria-labelledby="title desc">
  <title id="title">Vattention wordmark — black-transparent</title>
  <desc id="desc">Custom lowercase vattention logo traced from the approved wordmark artwork.</desc>

  <path d="M 1520 414.01 L 1506 414.56 L 1490 413.29 L 1487 411.97 L 1481 411.3 L 1478 409.82 L 1473.43 409 L 1467 406.43 L 1466 404.93 L 1462.12 404 L 1461.72 403 L 1458.8 402 L 1453 397.4 L 1444 387.82 L 1441 382.09 L 1437 377.19 L 1433 368.65 L 1430.19 360 L 1427.97 342 L 1427.84 161 L 1427.1 157 L 1426 156.79 L 1284 156.61 L 1268 156.71 L 1265 157.38 L 1264.33 160 L 1264.23 172 L 1264.15 321 L 1264.64 338 L 1267 346.15 L 1271.39 354 L 1273.01 355 L 1274 357.84 L 1275.99 359 L 1278.88 363 L 1290.56 370 L 1296 371.21 L 1297 372.18 L 1311 374.23 L 1323 374.05 L 1356 368.08 L 1360.12 366 L 1360.93 367 L 1361.54 382 L 1360.94 404 L 1358 406.05 L 1349 408.76 L 1326 413.62 L 1307 414.96 L 1288 413.49 L 1282 411.88 L 1274 411.04 L 1273 409.93 L 1266.89 409 L 1264 407.28 L 1260 406.38 L 1259 404.96 L 1256 404.39 L 1255 402.96 L 1251.5 402 L 1248.86 400 L 1248 398.33 L 1243.58 395 L 1236 386.51 L 1235 386.25 L 1228 375.4 L 1223.6 365 L 1222.4 359 L 1220.86 356 L 1218.94 344 L 1218.72 178 L 1218 157.73 L 1215 156.8 L 1162 156.47 L 1161.04 156 L 1160.59 154 L 1160.72 118 L 1160.89 116 L 1162 114.98 L 1170.87 115 L 1177 113.95 L 1215 113.76 L 1218.19 113 L 1218.75 36 L 1220.31 34 L 1261 33.76 L 1262.64 34 L 1264 35.86 L 1264.31 100 L 1265 113.17 L 1299 114.29 L 1376 113.85 L 1401 114.51 L 1427 113.36 L 1427.88 92 L 1428 35.73 L 1431 33.96 L 1470 33.64 L 1471.15 37 L 1472.02 113 L 1474 113.88 L 1497 114.74 L 1553 114.79 L 1557 114.04 L 1558 115.14 L 1558.56 117 L 1558.61 142 L 1558 156.33 L 1475 156.84 L 1473.76 157 L 1471.62 160 L 1471.48 324 L 1471.87 331 L 1473.8 342 L 1476 348.35 L 1480.45 356 L 1482 356.85 L 1484.72 361 L 1489.57 364 L 1490 365.14 L 1493.37 366 L 1495 367.49 L 1500.89 370 L 1508 372.09 L 1532 372.33 L 1545.66 370 L 1553 368.04 L 1557 366.11 L 1558.19 367 L 1558.32 404 L 1555.26 406 L 1550 407.07 L 1546 408.94 L 1520 414.01 Z M 2311 414.04 L 2296 413.7 L 2280 411.25 L 2277 409.8 L 2271 408.98 L 2270 407.93 L 2264 406.16 L 2263.3 405 L 2259.03 404 L 2258.72 403 L 2252.48 400 L 2245.91 395 L 2241 390.29 L 2240 388.23 L 2239 388 L 2235.76 382 L 2233.94 381 L 2233.22 378 L 2231.76 377 L 2231 374.11 L 2227 367.53 L 2226.38 364 L 2224.68 361 L 2224.01 355 L 2222.3 349 L 2220.92 331 L 2220.47 160 L 2219 156.96 L 2168 156.56 L 2166.25 156 L 2165.07 154 L 2164.95 119 L 2166.26 116 L 2219.43 115 L 2220.75 96 L 2220.99 39 L 2221.28 38 L 2223 37.33 L 2263.29 38 L 2264.03 113 L 2267 114.04 L 2281 114.41 L 2297 113.98 L 2344 115.09 L 2354 114.59 L 2355.41 116 L 2355.9 144 L 2355.76 154 L 2355 156.4 L 2267 156.67 L 2265.69 157 L 2265 159.22 L 2263.95 160 L 2263.91 328 L 2265.93 342 L 2267.11 343 L 2268.68 349 L 2272.59 356 L 2274.26 357 L 2279.17 363 L 2281.26 364 L 2282 365.45 L 2291.27 370 L 2297.53 371 L 2299.23 372 L 2310 372.66 L 2322 372.24 L 2326 370.94 L 2334 369.89 L 2335.15 369 L 2341 367.77 L 2344 366.02 L 2350 365.43 L 2354 363.59 L 2356.14 364 L 2356.59 365 L 2355.9 378 L 2356.33 397 L 2355.64 404 L 2343 408.94 L 2337 409.75 L 2334 411.03 L 2311 414.04 Z M 2430 93.12 L 2418 92.3 L 2412.7 90 L 2406.11 85 L 2404 82.45 L 2403 79.39 L 2401.68 78 L 2401 74.9 L 2399.88 74 L 2399.72 63 L 2401.36 60 L 2402 56.24 L 2403 55.77 L 2406.58 50 L 2412 46.29 L 2413 44.83 L 2416.09 44 L 2418 42.57 L 2432 42.28 L 2438.39 45 L 2442 47.22 L 2442.88 49 L 2446.61 52 L 2447.72 55 L 2449.07 56 L 2450 61.6 L 2451 62.81 L 2451 71.4 L 2450 72.95 L 2449.35 78 L 2447 83.15 L 2440 90.1 L 2435 92.38 L 2430 93.12 Z M 1000 414.02 L 964 413.57 L 946 411.01 L 945 409.99 L 938.44 409 L 930 406.21 L 928.91 405 L 925 404.16 L 924 402.69 L 920.49 402 L 920 400.99 L 917.31 400 L 906.82 393 L 892.55 381 L 886 373.18 L 885 370.77 L 881.33 367 L 880.39 364 L 878.89 363 L 878.22 359 L 876.85 358 L 876.4 355 L 872 344.02 L 871.46 339 L 870 335.89 L 868.07 317 L 867.96 305 L 872 284.96 L 874.87 277 L 876.18 276 L 876.89 272 L 878.25 271 L 879 267.73 L 880.14 267 L 881.89 263 L 885 259.98 L 886 256.76 L 888 253.93 L 889.82 253 L 892.69 249 L 899 243.57 L 899.75 242 L 913.05 233 L 924 227.69 L 925 226.24 L 940.91 219 L 949 218.11 L 951.57 217 L 962 216.5 L 1055 216.38 L 1087 215.58 L 1087.99 213 L 1088.31 204 L 1087 188.89 L 1086 187.95 L 1085.41 185 L 1082.9 180 L 1080.2 176 L 1068.4 164 L 1060 159.64 L 1052 157.15 L 1048 156.69 L 925 156.71 L 917.73 157 L 904 159.56 L 901.39 161 L 896.5 162 L 895.63 163 L 888 166.29 L 887 167.67 L 881 171.54 L 874.93 178 L 868 187.06 L 866.05 191 L 865 191.41 L 862 198.26 L 860.69 199 L 860 202.01 L 858.57 203 L 855 211.81 L 853.68 213 L 853.03 216 L 851.52 217 L 848 225.32 L 846.87 226 L 845.79 230 L 842 236.03 L 839 244.15 L 838 244.75 L 837 248.09 L 835.87 249 L 832 257.53 L 831 258.31 L 830.09 262 L 826 269.06 L 825 272.91 L 824 273.45 L 820.43 282 L 819 283.39 L 818 287.28 L 816.79 288 L 816 291.74 L 814.52 293 L 811.25 301 L 809.92 302 L 809 305.78 L 803 316.84 L 798 328.94 L 794 334.86 L 793 338.53 L 791.99 339 L 791 342.34 L 786.57 350 L 783.14 358 L 782.01 359 L 781 362.49 L 779.56 364 L 772.01 381 L 770.73 382 L 770 385.14 L 768.43 387 L 765.03 395 L 763.69 396 L 763 398.68 L 758.87 406 L 756 406.84 L 706 407.01 L 704 406.03 L 701.8 402 L 699.09 394 L 697.98 393 L 696.75 389 L 693 381.96 L 692.14 378 L 690.77 377 L 690 373.16 L 688.66 372 L 685.1 362 L 683.86 361 L 683.13 357 L 681.85 356 L 678.05 346 L 677 345.23 L 676.06 341 L 674.47 340 L 672.09 335 L 667 320.78 L 665.48 319 L 660 305.45 L 656 298.34 L 653 288.76 L 652 287.89 L 651 283.72 L 646.86 276 L 644 267.62 L 639.74 260 L 636.81 252 L 633 244.86 L 632.42 242 L 629 235.86 L 618.32 210 L 617.3 209 L 616.19 205 L 615 203.88 L 614.33 201 L 610 193.04 L 609 189.12 L 608 188.38 L 605 179.61 L 603.98 179 L 601 172.39 L 598.21 164 L 596.3 161 L 595.15 157 L 594.02 156 L 589 142.56 L 585.37 136 L 584.17 132 L 583 131.25 L 582 127.07 L 581 126.24 L 578 119.01 L 577.78 116 L 602 115.4 L 624 115.44 L 625.88 116 L 628.92 124 L 630 124.75 L 630.91 129 L 632 129.76 L 633 133.98 L 636.98 141 L 640 149.58 L 644.06 157 L 644.97 161 L 646.11 162 L 647 165.5 L 652.22 177 L 653 177.42 L 654 181.16 L 655 181.84 L 656 185.47 L 657.29 187 L 663.05 202 L 664.15 203 L 667 209.48 L 669.94 218 L 671 218.62 L 672 223.06 L 673.17 224 L 677 234.18 L 678 234.94 L 679.22 239 L 680.38 240 L 690.57 264 L 692 265.57 L 692.67 269 L 694 270.38 L 695 274.43 L 698.64 281 L 699.82 285 L 701 286.12 L 702 289.77 L 707.7 300 L 713 311.64 L 713.74 315 L 715 315.91 L 715.54 319 L 717 320.77 L 717.66 324 L 719 325.64 L 722.93 336 L 724 336.95 L 724.69 340 L 725.84 341 L 730 350.5 L 731 351.37 L 732 354.74 L 735 356.51 L 736.2 356 L 737 352.9 L 738 352.44 L 743.88 339 L 745.17 338 L 746 334.48 L 747.4 333 L 750.62 325 L 752 323.98 L 752.86 320 L 754.23 319 L 757 310.75 L 763.46 299 L 766.73 291 L 768 289.69 L 771.37 281 L 772.64 280 L 773.45 277 L 775 275.54 L 775.73 272 L 777.03 271 L 780 262.75 L 781.21 262 L 787 248.84 L 791 242.64 L 791.59 240 L 793.48 237 L 794 233.88 L 795.8 232 L 797 228.11 L 798 227.49 L 799 223.44 L 800.03 223 L 801 218.7 L 802.22 218 L 803 214.61 L 807 207.73 L 810 200.44 L 814 194.03 L 817 186.22 L 823.35 175 L 824 172.32 L 825 171.48 L 828.32 164 L 831 159.66 L 832.3 159 L 832.78 157 L 835.61 153 L 837 152.4 L 840 147.48 L 841 147.15 L 845 142.13 L 858.82 130 L 862 128.54 L 866.5 125 L 885.64 116 L 892 115.09 L 893.37 114 L 903 113.06 L 907 111.74 L 1050 111.53 L 1066.23 114 L 1067.34 115 L 1073.38 116 L 1089 122.84 L 1090 124.16 L 1092.84 125 L 1100.98 130 L 1110 138.21 L 1115.22 145 L 1116.87 146 L 1120.23 152 L 1124 156.74 L 1131 172.8 L 1131.65 177 L 1133.07 180 L 1135 198.93 L 1135.1 209 L 1134.52 289 L 1135.03 330 L 1133.73 406 L 1132 406.78 L 1114 407.11 L 1090 406.45 L 1089.39 374 L 1089 371.85 L 1088 371.57 L 1086 372.1 L 1080.19 379 L 1075.9 382 L 1073 385.58 L 1065 391.26 L 1064 392.89 L 1058 395.74 L 1057 397.16 L 1054 398.4 L 1052.34 400 L 1049 400.88 L 1048.54 402 L 1029.59 409 L 1007 413.42 L 1000 414.02 Z M 1753 414.05 L 1729 414.59 L 1713 414.01 L 1684.82 409 L 1682 407.49 L 1676 406.19 L 1675 404.89 L 1670.19 404 L 1669.14 403 L 1659.94 400 L 1659 398.83 L 1655 397.44 L 1654 396.08 L 1651 395.22 L 1650 393.78 L 1647.46 393 L 1642.4 389 L 1639.53 388 L 1636 384.64 L 1630 381.2 L 1629.61 380 L 1627.67 379 L 1627 377.48 L 1625.62 377 L 1622.49 373 L 1620.77 372 L 1614 364.55 L 1608.76 357 L 1606.92 356 L 1600 346.13 L 1591 329.97 L 1590 325.87 L 1589 324.86 L 1588 320.82 L 1584 312.14 L 1579.95 297 L 1576.91 276 L 1576.95 251 L 1577.66 242 L 1581.95 217 L 1583.01 216 L 1584 210.74 L 1588 202.68 L 1588.97 199 L 1590 198.56 L 1593 191.41 L 1600.84 178 L 1604 174.6 L 1607.05 169 L 1611 165.02 L 1614.2 160 L 1615.85 159 L 1618.8 155 L 1620.66 154 L 1620.85 153 L 1622.72 152 L 1623 150.92 L 1634.26 141 L 1636 140.51 L 1637 138.9 L 1642.82 136 L 1644 134.47 L 1650 131.19 L 1650.68 130 L 1659.45 125 L 1681.95 116 L 1706 111.74 L 1746 111.75 L 1752 113.1 L 1764 114 L 1765.12 115 L 1773.43 116 L 1797.22 125 L 1803.37 129 L 1806.2 130 L 1814 135.74 L 1817.13 137 L 1817.56 138 L 1820.23 139 L 1820.55 140 L 1831.09 148 L 1834.37 152 L 1838 154.7 L 1839 156.76 L 1840.05 157 L 1840.52 159 L 1842.21 160 L 1844 162.97 L 1845 163.31 L 1846 165.83 L 1847 166.21 L 1853.1 179 L 1854 179.53 L 1855 183.33 L 1858.7 190 L 1860 195.16 L 1861 195.98 L 1862 202.34 L 1863.02 203 L 1867.85 231 L 1868.32 240 L 1867.75 280 L 1865 282.21 L 1646 282.16 L 1626 282.65 L 1623.77 284 L 1623.54 287 L 1625.64 299 L 1628 305.59 L 1629 306.48 L 1629.66 310 L 1631 311.62 L 1631.67 315 L 1636 321.49 L 1637 324.45 L 1638 324.77 L 1639 327.18 L 1646 336.42 L 1656.7 347 L 1666 352.83 L 1666.57 354 L 1677.62 359 L 1679.67 361 L 1684 361.87 L 1685 363.14 L 1690.04 364 L 1692 365.39 L 1712.54 370 L 1722 370.64 L 1753 370.18 L 1769 367.83 L 1774.68 366 L 1781 365.11 L 1793.09 361 L 1795.3 359 L 1798.83 358 L 1799.37 357 L 1806.19 354 L 1807 352.64 L 1813 349.34 L 1814 347.84 L 1816.83 347 L 1824 342.46 L 1825 340.86 L 1828.25 341 L 1830 344.83 L 1838 355.9 L 1838.66 358 L 1840.2 359 L 1840.54 361 L 1842 362.24 L 1843.19 365 L 1845.04 366 L 1846 369.48 L 1849.08 374 L 1847 376.59 L 1839 381.81 L 1836 385.03 L 1825 391.61 L 1824.21 393 L 1807.39 402 L 1802.49 403 L 1801.77 404 L 1797.26 405 L 1795 406.4 L 1788 407.48 L 1785 409.01 L 1779 409.63 L 1775.3 411 L 1764 413.08 L 1753 414.05 Z M 2130 407.04 L 2110 406.98 L 2107.57 406 L 2107.46 229 L 2107 221.2 L 2102 203.11 L 2101 202.41 L 2100.23 199 L 2099 197.97 L 2097.49 194 L 2096.02 193 L 2095 190.15 L 2091 184.55 L 2089.72 184 L 2084 177.44 L 2082.57 177 L 2079 173.25 L 2072 168.39 L 2060.47 162 L 2055.09 161 L 2054 159.93 L 2040 156.86 L 2029 156.47 L 2012.49 157 L 2006 158.95 L 1998 159.93 L 1996.39 161 L 1990.16 162 L 1989.28 163 L 1986 163.57 L 1979 167.13 L 1972 171.13 L 1966.63 177 L 1962.4 180 L 1962 181.39 L 1960.69 182 L 1960 183.67 L 1956 187.82 L 1949 200.11 L 1947 204.02 L 1946 209.14 L 1944.84 210 L 1943.98 216 L 1942.44 219 L 1939.86 236 L 1939.26 406 L 1898.93 406 L 1898.3 237 L 1899 220.32 L 1900.11 218 L 1901 207.81 L 1902 206.29 L 1903.18 199 L 1905 195.97 L 1906 190.07 L 1907.18 189 L 1908 184.66 L 1909.07 184 L 1910.11 180 L 1913.68 175 L 1915 171.39 L 1919.98 164 L 1921 163.69 L 1921.63 162 L 1925 158.98 L 1926 156.63 L 1941.85 141 L 1944 140.01 L 1947 136.7 L 1953 133.19 L 1953.81 132 L 1966 125.22 L 1969 124.42 L 1970.46 123 L 1991.23 116 L 1999 115.12 L 2000.94 114 L 2026 112.14 L 2049 113.89 L 2052 115.04 L 2061.43 116 L 2064 117.29 L 2068.34 118 L 2084.33 125 L 2093 129.75 L 2094 131.15 L 2100 134.53 L 2100.99 136 L 2106.54 139 L 2109.03 141 L 2112 145.01 L 2116 147.62 L 2119 152.06 L 2122.98 155 L 2126.44 161 L 2132 168.02 L 2133 170.58 L 2134 170.93 L 2135 174.05 L 2138.98 180 L 2139.97 184 L 2141 184.83 L 2141.82 189 L 2145.65 199 L 2146.7 205 L 2148.08 208 L 2150.43 226 L 2150.43 405 L 2150 406.43 L 2148 406.84 L 2130 407.04 Z M 2646 414.01 L 2620 413.55 L 2593.11 409 L 2582.99 405 L 2578.28 404 L 2577 402.74 L 2574 402.26 L 2572.97 401 L 2569.34 400 L 2562.81 396 L 2559.64 395 L 2559 393.93 L 2555.89 393 L 2551 389.78 L 2548 386.88 L 2542 383.19 L 2539 379.97 L 2536.75 379 L 2536.49 378 L 2528 370.74 L 2520.39 362 L 2518.73 361 L 2518.19 359 L 2516.45 358 L 2513 352.6 L 2512 352.16 L 2511.33 350 L 2510 349.16 L 2509 346.37 L 2503 337.6 L 2502.01 334 L 2500.67 333 L 2497.27 325 L 2496 323.65 L 2495.15 320 L 2491 310.85 L 2490 306.31 L 2489 305.13 L 2485 283.48 L 2484.34 254 L 2484.94 242 L 2485.98 239 L 2487 227.07 L 2488.13 225 L 2489 218.56 L 2496 200.57 L 2503 186.49 L 2504.07 186 L 2509.89 176 L 2511.48 175 L 2512 173.25 L 2518 166.26 L 2519 164.02 L 2534.81 148 L 2543.58 141 L 2545.88 140 L 2546.34 139 L 2552.06 136 L 2553 134.53 L 2559.41 131 L 2559.97 130 L 2569.74 125 L 2573 124.2 L 2574 122.97 L 2578.48 122 L 2588 118.08 L 2593.24 117 L 2594.66 116 L 2604.65 115 L 2606.6 114 L 2639 112.74 L 2660 114 L 2661 115.01 L 2669.65 116 L 2697 125.31 L 2711 132.55 L 2724 141.14 L 2734 149.92 L 2740.99 157 L 2743.75 161 L 2745.53 162 L 2746 163.41 L 2747.41 164 L 2757.4 179 L 2759 180.23 L 2760 183.77 L 2761 184.24 L 2766.71 196 L 2768 197.05 L 2771.32 207 L 2773 209.64 L 2773.87 216 L 2775.06 217 L 2775.79 223 L 2777.17 226 L 2780.1 240 L 2780.72 263 L 2780.15 285 L 2777.13 303 L 2776.3 304 L 2773 317.34 L 2771.21 320 L 2770.19 324 L 2768.96 325 L 2768 328.96 L 2766.83 330 L 2766 333.01 L 2764.69 334 L 2763.18 338 L 2761.73 339 L 2761.05 342 L 2759.56 343 L 2759 345.39 L 2752.1 356 L 2750.46 357 L 2745.08 365 L 2743.23 366 L 2740.33 370 L 2739 370.49 L 2738 372.38 L 2737 372.57 L 2736 374.45 L 2731.07 379 L 2723 384.46 L 2720 388.05 L 2717.32 389 L 2704 397.53 L 2699.4 400 L 2696 400.84 L 2695 402.14 L 2691 402.74 L 2690 404.03 L 2685.14 405 L 2683 406.46 L 2676 408.65 L 2668 409.97 L 2665 411.3 L 2646 414.01 Z M 3062 406.37 L 3025 406.85 L 3021.47 406 L 3021.21 233 L 3018.65 217 L 3014 202.45 L 3005 186.43 L 3003.86 186 L 2996.69 178 L 2992 174.94 L 2989 171.14 L 2983 167.71 L 2982 166.28 L 2973.14 162 L 2968.02 161 L 2966 159.84 L 2951.72 157 L 2936 156.52 L 2923 156.98 L 2917.14 159 L 2911 159.99 L 2909.82 161 L 2904.7 162 L 2904.17 163 L 2900 163.87 L 2899 165.07 L 2891 168.7 L 2876.54 180 L 2876 181.42 L 2870 187.15 L 2867 193.35 L 2865.75 194 L 2865 196.63 L 2862.71 199 L 2862.11 202 L 2860.76 203 L 2860 207.48 L 2859 208.1 L 2857.81 214 L 2856.12 217 L 2853.59 229 L 2853.04 391 L 2852.36 406 L 2850 406.71 L 2831 406.88 L 2814 406.72 L 2812.28 406 L 2812.03 254 L 2813 217.32 L 2813.95 216 L 2815 207.47 L 2816.99 202 L 2817.68 197 L 2819 194.97 L 2820 189.37 L 2821 188.77 L 2824 179.67 L 2828.35 173 L 2829 170.73 L 2830.18 170 L 2831.4 167 L 2835 162.79 L 2836.22 160 L 2837.7 159 L 2838.38 157 L 2841.89 154 L 2845 149.39 L 2853.8 141 L 2858.61 138 L 2859 136.88 L 2865 133.63 L 2870 129.72 L 2883.38 123 L 2897.81 118 L 2904 117.27 L 2906.56 116 L 2917 115.13 L 2920.07 114 L 2933 113.65 L 2948.8 114 L 2953 115.17 L 2966.76 116 L 2984 120.76 L 2995 125.2 L 3001.21 129 L 3004.24 130 L 3021.26 141 L 3030 149.02 L 3035.46 156 L 3037.05 157 L 3037.57 159 L 3039 159.78 L 3043.84 167 L 3053 183.47 L 3057 194.97 L 3062 217.87 L 3062.74 252 L 3062 406.37 Z M 2438 407.02 L 2406 406.71 L 2404.52 406 L 2404 402.4 L 2403.95 124 L 2404 118.87 L 2406 115.99 L 2446 115.8 L 2447.23 118 L 2447.11 405 L 2447 406.14 L 2446 406.68 L 2438 407.02 Z M 1824.16 241 L 1824.82 238 L 1824.38 226 L 1824 223.88 L 1823 223 L 1822.28 215 L 1821 213.2 L 1820.15 208 L 1818.93 207 L 1817.91 203 L 1816.66 202 L 1815.48 199 L 1813.89 198 L 1813 195.13 L 1810.81 192 L 1801 180.22 L 1790.46 171 L 1783 166.1 L 1778 163.57 L 1775.07 163 L 1774 161.8 L 1756.2 157 L 1723 155.81 L 1703 156.86 L 1698 158.85 L 1692 159.67 L 1689.84 161 L 1685 161.9 L 1684.06 163 L 1679.06 164 L 1669 168.91 L 1668.34 170 L 1662 173.65 L 1658.74 177 L 1656.48 178 L 1646 188.57 L 1645 190.71 L 1641.75 194 L 1638 200.4 L 1636.79 201 L 1636 204.01 L 1634.54 205 L 1633 208.83 L 1632 209.43 L 1631 212.97 L 1629.57 215 L 1629 218.36 L 1628 219.27 L 1623.13 238 L 1624.02 241 L 1626 241.52 L 1787 241.66 L 1824.16 241 Z M 2653.3 370 L 2672 365.24 L 2673.07 364 L 2678 363.03 L 2678.59 362 L 2681.92 361 L 2683.69 359 L 2686 358.22 L 2686.75 357 L 2692.12 354 L 2695.89 350 L 2706 342.23 L 2713 334.64 L 2714 332.19 L 2716 331.01 L 2716.93 329 L 2718 328.45 L 2727 313.66 L 2730.5 304 L 2731.58 303 L 2733 297.42 L 2734 296.37 L 2735 289.19 L 2736.15 287 L 2736.95 277 L 2738.4 271 L 2738.05 245 L 2737 243.04 L 2736.14 234 L 2734.84 232 L 2734 226.04 L 2732.87 225 L 2729 213.17 L 2722.47 201 L 2721 200.26 L 2718 194.65 L 2715.78 192 L 2714 191.21 L 2711 186.67 L 2709.39 186 L 2704.01 180 L 2696 174.54 L 2695 172.99 L 2688 168.55 L 2678.51 164 L 2651.8 157 L 2637 156.19 L 2616.49 157 L 2590 163.88 L 2589 165.06 L 2585.2 166 L 2576 170.7 L 2575 172.18 L 2566.26 178 L 2566.01 179 L 2563.62 180 L 2558 184.93 L 2549 195.54 L 2547.92 198 L 2546.35 199 L 2539.56 210 L 2538.14 214 L 2537 214.74 L 2536 218.47 L 2534.95 219 L 2530 233.91 L 2529 241.53 L 2528 243.77 L 2527.43 252 L 2527.89 278 L 2529 280.47 L 2530 289.56 L 2532.77 299 L 2536 305.32 L 2537 309.6 L 2544 322.74 L 2555.13 338 L 2557 338.98 L 2557.23 340 L 2559.14 341 L 2560 342.64 L 2567.13 349 L 2573 352.66 L 2573.6 354 L 2576.63 356 L 2579.98 357 L 2581 358.42 L 2584 359.39 L 2585.28 361 L 2589.49 362 L 2590 363.11 L 2594.75 364 L 2597 365.48 L 2600.69 366 L 2604 367.65 L 2615 369.92 L 2636 370.65 L 2653.3 370 Z M 1004.65 372 L 1023 369.84 L 1046 363.01 L 1046.37 362 L 1050.04 361 L 1051 359.05 L 1054.22 358 L 1057.58 356 L 1058 354.88 L 1060.34 354 L 1060.72 353 L 1069 346.46 L 1073 341.79 L 1074.4 339 L 1075.93 338 L 1080.46 331 L 1085 321.93 L 1086 315.97 L 1087 314.72 L 1088.77 280 L 1088.22 259 L 1087.15 256 L 981 255.76 L 972.85 256 L 960 257.92 L 956.23 260 L 952 260.63 L 949.91 262 L 946 262.89 L 945 264.27 L 942.19 265 L 934 271.32 L 928.21 278 L 927 278.37 L 926 280.42 L 924.72 281 L 922 287.06 L 920.72 288 L 917.67 295 L 917 299.26 L 916 300.3 L 914.42 314 L 915.84 326 L 917 327.66 L 917.99 333 L 919.18 334 L 920.3 338 L 921.5 339 L 922.47 342 L 924 343.51 L 924.93 347 L 926 347.41 L 927 349.74 L 933.01 356 L 938 359.47 L 938.53 361 L 943 363.55 L 945.34 364 L 946 365.23 L 959.31 370 L 973 372.03 L 1004.65 372 Z" fill="#000000" fill-rule="evenodd" clip-rule="evenodd" shape-rendering="geometricPrecision"/>
</svg>
